# xmcd CD database file
#
# Track frame offsets:
#	150
#	14546
#	36354
#	63922
#	88027
#	105418
#	130786
#	144566
#	167642
#	189025
#
# Disc length: 2900 seconds
#
# Revision: 0
# Processed by: cddbd v1.5.2PL0 Copyright (c) Steve Scherf et al.
# Submitted via: CDex 1.70beta1
#
DISCID=7b0b520a
DTITLE=Lenny Breau - Berklee Clinic '76
DYEAR=2007
DGENRE=Jazz
TTITLE0=01 - Emily
TTITLE1=02 - Don't Think Twice, It's All Right
TTITLE2=03 - Why Did I Choose You
TTITLE3=04 - Visions(fixed)
TTITLE4=05 - Autumn Leaves
TTITLE5=06 - Stella by Starlight
TTITLE6=07 - title needed
TTITLE7=08 - Impressions
TTITLE8=09 - Billy's Bounce
TTITLE9=10 - Lenny Answers Questions
EXTD=YEAR: 2007
EXTT0=
EXTT1=
EXTT2=
EXTT3=
EXTT4=
EXTT5=
EXTT6=
EXTT7=
EXTT8=
EXTT9=
PLAYORDER=
